<svg id="Calque_1" data-name="Calque 1" xmlns="http://www.w3.org/2000/svg" viewBox="0 0 512 512"><defs><style>.cls-1{fill:#1d1d1b;}.cls-2{fill:#fff;}</style></defs><rect class="cls-1" width="512" height="512" rx="256"/><path class="cls-2" d="M119.46,146c1.65-3.65,17-3.44,21.52-5.32s9.94-10.95,19.17-17,27.12-22.27,41.65-27.12,34.87-7.75,59.09-7.75,70.16,11.33,81.36,19.38,32,18.4,48.44,57.15,14.53,68.77,12.59,89.11-11.63,58.59-20.34,79.18-24.22,38-41.65,54.5S316.1,413.33,292.85,423,251.2,433.67,226,432.7s-54.25-8.71-64.9-15.49-19.38-4.85-27.13-17.44-7.75-26.15,1.94-26.15,69.74,0,98.8-25.19c22.5-19.49,34.87-63.63,43.59-87.51s-3.39-60.69-16.32-80.06S206.64,146,177.58,147.92s-34.72,9.69-41.65,8.72S117.82,149.63,119.46,146Z"/></svg>